GIL02_free2_RRA_states
nRows=4
nColumns=47

# SIMM Motion File Header:
name GIL02_free2_RRA_states
datacolumns 47
datarows 4
otherdata 1
range 0.35750000000000021000 0.35900000000000021000
endheader
time	pelvis_tx	pelvis_ty	pelvis_tz	pelvis_tilt	pelvis_list	pelvis_rotation	hip_flexion_r	hip_adduction_r	hip_rotation_r	knee_angle_r	ankle_angle_r	subtalar_angle_r	mtp_angle_r	hip_flexion_l	hip_adduction_l	hip_rotation_l	knee_angle_l	ankle_angle_l	subtalar_angle_l	mtp_angle_l	lumbar_extension	lumbar_bending	lumbar_rotation	pelvis_tx_u	pelvis_ty_u	pelvis_tz_u	pelvis_tilt_u	pelvis_list_u	pelvis_rotation_u	hip_flexion_r_u	hip_adduction_r_u	hip_rotation_r_u	knee_angle_r_u	ankle_angle_r_u	subtalar_angle_r_u	mtp_angle_r_u	hip_flexion_l_u	hip_adduction_l_u	hip_rotation_l_u	knee_angle_l_u	ankle_angle_l_u	subtalar_angle_l_u	mtp_angle_l_u	lumbar_extension_u	lumbar_bending_u	lumbar_rotation_u
      0.35750000000000021000	      1.43021858124864830000	      0.95833804406861822000	     -0.21728643749030563000	      0.49037988921159220000	      3.16838696430987320000	      1.35212438742631560000	     -4.49031177500644850000	     -1.62749718687950010000	     11.96980130821786000000	     -4.09441464234336380000	      8.16261501400398440000	      0.00000000000001791290	     -0.00000000000000395799	     21.29541894020943400000	      2.18448166853649810000	     -1.19525636275199300000	    -39.93408109735198500000	     -0.27143074085728480000	      0.00000000000000612619	     -0.00000000000000099839	     -2.71664576206975770000	     -0.29778456364882000000	      4.12550808490122290000	      1.05352951011921860000	     -0.09633955324487973600	     -0.00157249419261577860	      7.14562736439200920000	     14.87984646171098500000	    -33.19606166650037700000	    -93.89128182071077300000	    -17.32986731020012500000	     60.81115899647594600000	     27.96797225968932200000	     54.59900366260929900000	      0.00000000000014875082	     -0.00000000000003866031	     36.57922820330118400000	     24.06627573511251200000	     49.44628408436680900000	    291.90140866145470000000	     49.85376471812610100000	      0.00000000000004613462	     -0.00000000000003026255	    -16.08708743024337600000	    -17.10086076959866500000	     24.90929739727560800000
      0.35800000000000021000	      1.43074542865265950000	      0.95828957627208311000	     -0.21728724650621750000	      0.49392006577969222000	      3.17580199608553220000	      1.33547260606695280000	     -4.53718296299592970000	     -1.63614697529795740000	     12.00030890564748600000	     -4.08052218858895180000	      8.18993679318093730000	      0.00000000000001798597	     -0.00000000000000396673	     21.31361258815105900000	      2.19645762599847580000	     -1.17059299658442680000	    -39.78789310657141000000	     -0.24673680044962262000	      0.00000000000000614940	     -0.00000000000000101411	     -2.72462785939462960000	     -0.30629817400318327000	      4.13802778212720490000	      1.05386070464562720000	     -0.09753147263546653500	     -0.00166319320506921710	      7.01497686080987390000	     14.78050419967171600000	    -33.41116830205813000000	    -93.59316291526373300000	    -17.26942948782663800000	     61.21826547233263900000	     27.60133996356831800000	     54.68805796705824900000	      0.00000000000015741198	     -0.00000000000003431812	     36.19556780191224000000	     23.83741645833584500000	     49.20542849312397500000	    292.84942108217547000000	     48.92009413863667100000	      0.00000000000004565751	     -0.00000000000003286260	    -15.84107500405575700000	    -16.95385279871093700000	     25.16961332366515000000
      0.35850000000000021000	      1.43127244254675020000	      0.95824051277490607000	     -0.21728810030158038000	      0.49739477802491028000	      3.18316768734189680000	      1.31871311533179790000	     -4.58390464716214030000	     -1.64476675679916620000	     12.03101859481452300000	     -4.06681379093318980000	      8.21730301163900380000	      0.00000000000001806477	     -0.00000000000000398569	     21.33161469339695100000	      2.20831894445846990000	     -1.14605266373789800000	    -39.64123280780462000000	     -0.22251252164766167000	      0.00000000000000617222	     -0.00000000000000103028	     -2.73248662894791390000	     -0.31473868355930257000	      4.15067781056485250000	      1.05419545950385410000	     -0.09872231695007738200	     -0.00175160042903743370	      6.88379825181034640000	     14.68247504757425600000	    -33.62689751049035900000	    -93.29329981431415300000	    -17.20983432910599500000	     61.61949822130347300000	     27.23177674854093100000	     54.77675022273181300000	      0.00000000000016097748	     -0.00000000000003345191	     35.81302013077407100000	     23.60771424755034800000	     48.95419648414835500000	    293.79064318344030000000	     47.97517516322402300000	      0.00000000000004565764	     -0.00000000000003196661	    -15.59381414851312700000	    -16.80844767840259700000	     25.43060304894777700000
      0.35900000000000021000	      1.43179962469692850000	      0.95819085414994565000	     -0.21728899772234819000	      0.50080378676274273000	      3.19048468362125210000	      1.30184560826943630000	     -4.63047598171523860000	     -1.65335694457439160000	     12.06192740438714800000	     -4.05329090044260810000	      8.24471349016489260000	      0.00000000000001814818	     -0.00000000000000400237	     21.34942578304017900000	      2.22006519716576010000	     -1.12164051577547360000	    -39.49410360177913800000	     -0.19876346790876739000	      0.00000000000000619497	     -0.00000000000000104597	     -2.74022148070006870000	     -0.32310688162452333000	      4.16345848543756960000	      1.05453372254788720000	     -0.09991199087736332700	     -0.00183770176068779270	      6.75215620248982610000	     14.58572092750356900000	    -33.84322816858144000000	    -92.99175052529280100000	    -17.15104888365451800000	     62.01473353771365300000	     26.85928239350786500000	     54.86512292701743800000	      0.00000000000016030500	     -0.00000000000000535728	     35.43152146913790500000	     23.37715383887260100000	     48.69267069333128700000	    294.72503376950186000000	     47.01920164957420000000	      0.00000000000004475713	     -0.00000000000002977966	    -15.34539655124267900000	    -16.66460237029186300000	     25.69219401728767600000
